<svg width="92" height="26" viewBox="0 0 92 26" fill="none" xmlns="http://www.w3.org/2000/svg">
<g filter="url(#filter0_di_15460_1655)">
<path d="M13.0005 3H83.0554C84.6793 3 86.1563 3.66448 87.2248 4.73409C88.2944 5.8026 88.9589 7.27847 88.9589 8.90237V22.9999H13.0005C10.2514 22.9999 7.7515 21.8747 5.9395 20.0627C4.12527 18.2518 3 15.7497 3 13.0005C3 10.2491 4.12527 7.74816 5.93727 5.93727C7.7515 4.12527 10.2514 3 13.0005 3ZM83.0554 4.14642H13.0005C10.5652 4.14642 8.35031 5.14257 6.74644 6.74644C5.14369 8.35142 4.14642 10.5663 4.14642 13.0005C4.14642 15.4336 5.14369 17.6485 6.74755 19.2524C8.35031 20.8574 10.5652 21.8535 13.0005 21.8535H87.8125V8.90237C87.8125 7.59568 87.2771 6.40586 86.4145 5.54437C85.5519 4.68178 84.3632 4.14642 83.0554 4.14642Z" fill="#AA67FF"/>
</g>
<path d="M22.4274 13.6589H27.1232V9.60301C27.1232 9.14 27.0086 8.72818 26.7848 8.37201C26.56 8.01361 26.2695 7.73536 25.91 7.5428C25.5505 7.35136 25.1732 7.25342 24.7736 7.25342C24.0824 7.25342 23.5148 7.49161 23.0796 7.96687C22.6444 8.44102 22.4274 8.98862 22.4274 9.60301V13.6589ZM79.7292 14.7986H84.4251V9.60301C84.4251 9.14 84.3127 8.72818 84.0867 8.37201C83.8619 8.0125 83.5725 7.73536 83.2119 7.5428C82.8524 7.35136 82.4751 7.25342 82.0755 7.25342C81.3843 7.25342 80.8177 7.49161 80.3814 7.96687C79.9463 8.44213 79.7292 8.98751 79.7292 9.60301V14.7986ZM79.7292 15.856V19.5523H78.6696V15.856H76.7485V19.5523H75.6889V6.4654H76.7485V14.7986H78.6696V9.60301C78.6696 8.99975 78.8243 8.43656 79.1326 7.90899C79.4398 7.38253 79.8572 6.96403 80.3814 6.65684C80.909 6.34853 81.4722 6.19604 82.0755 6.19604C82.6787 6.19604 83.243 6.34853 83.7695 6.65684C84.2937 6.96403 84.7122 7.38253 85.0194 7.90899C85.3266 8.43656 85.4824 8.99975 85.4824 9.60301V19.5523H84.4251V15.856H79.7292ZM68.7804 14.7585H70.0325C71.1088 14.7585 71.9826 14.399 72.647 13.6834C73.3137 12.9643 73.6499 12.1173 73.6499 11.1423C73.6499 10.4222 73.4762 9.78889 73.129 9.23794C72.7839 8.68588 72.3332 8.26293 71.7811 7.96687C71.2302 7.67192 70.648 7.525 70.0325 7.525H68.7804V14.7585ZM70.0325 6.4654C70.864 6.4654 71.6453 6.67353 72.3699 7.08869C73.0956 7.50496 73.6643 8.07928 74.0817 8.80497C74.5002 9.52955 74.7061 10.3064 74.7061 11.1423C74.7061 11.8491 74.5481 12.528 74.2253 13.1803C73.9048 13.8347 73.4629 14.3812 72.8997 14.8164C72.3332 15.2527 71.7177 15.5477 71.051 15.7035L74.3221 19.5523H72.9186L69.761 15.8193H68.7804V19.5523H67.723V7.525H65.4035L66.0368 6.4654H70.0325ZM59.7983 6.19604C61.0449 6.19604 62.1846 6.50101 63.2231 7.10984C64.2626 7.71978 65.0885 8.53896 65.6973 9.57296C66.3061 10.6058 66.6111 11.7456 66.6111 12.9888C66.6111 14.2343 66.3061 15.374 65.6973 16.417C65.0885 17.4554 64.2626 18.2779 63.2231 18.8879C62.1846 19.4967 61.0449 19.8017 59.7983 19.8017C58.555 19.8017 57.4153 19.4967 56.3824 18.8879C55.3495 18.2779 54.5303 17.4554 53.9204 16.417C53.3105 15.374 53.0066 14.2343 53.0066 12.9888C53.0066 12.0773 53.1802 11.2058 53.5242 10.371C53.8725 9.53957 54.3623 8.80497 54.9967 8.16832C55.6333 7.5339 56.3635 7.0464 57.1905 6.70581C58.0186 6.36745 58.8878 6.19604 59.7983 6.19604ZM59.7983 7.25342C58.7721 7.25342 57.8182 7.50607 56.9311 8.01584C56.0474 8.52115 55.3462 9.22459 54.8342 10.1206C54.32 11.0199 54.064 11.9771 54.064 12.9888C54.064 14.0273 54.32 14.9901 54.8342 15.8771C55.3462 16.7609 56.0474 17.4621 56.9311 17.9741C57.8182 18.4883 58.7721 18.7443 59.7983 18.7443C60.8367 18.7443 61.8006 18.4883 62.6866 17.9741C63.5703 17.4621 64.2715 16.7609 64.7835 15.8771C65.2955 14.9901 65.5537 14.0273 65.5537 12.9888C65.5537 11.9771 65.2955 11.0199 64.7835 10.1206C64.2715 9.22459 63.5703 8.52115 62.6866 8.01584C61.8006 7.50607 60.8367 7.25342 59.7983 7.25342ZM54.4669 19.5523H49.8078V6.4654H50.8685V18.495H54.4669V19.5523ZM46.383 11.1813C47.0619 11.5653 47.614 12.1018 48.0369 12.7874C48.461 13.473 48.6747 14.241 48.6747 15.088C48.6747 15.8961 48.4732 16.6418 48.077 17.3307C47.6774 18.0164 47.1354 18.5584 46.4498 18.9546C45.7641 19.3542 45.0184 19.5523 44.207 19.5523H41.3799V11.681H39.4989V19.5523H38.4416V8.94855L34.6695 13.0679L30.8964 8.94855V19.5523H29.8368V6.21497L34.6695 11.5074L39.4989 6.21497V10.6025H41.3799V6.4654H44.8626C45.5816 6.4654 46.1938 6.71805 46.7002 7.22559C47.2089 7.73202 47.4615 8.35086 47.4615 9.08212C47.4615 9.96809 47.102 10.666 46.383 11.1813ZM42.4373 10.6214H44.8626C45.3256 10.6214 45.6974 10.4656 45.9778 10.1517C46.2606 9.83786 46.4008 9.48169 46.4008 9.08212C46.4008 8.62244 46.2517 8.24401 45.95 7.95796C45.6484 7.66858 45.2855 7.525 44.8626 7.525H42.4373V10.6214ZM42.4373 11.681V18.495H44.207C45.182 18.495 45.9957 18.1533 46.6423 17.4743C47.2912 16.7943 47.614 15.9985 47.614 15.088C47.614 14.4324 47.4582 13.8481 47.141 13.3361C46.8282 12.8241 46.4075 12.419 45.8832 12.1229C45.3557 11.8279 44.798 11.681 44.207 11.681H42.4373ZM13.5866 6.19604C14.7174 6.19604 15.7626 6.44314 16.7253 6.93732C17.6859 7.43039 18.475 8.11267 19.0927 8.98751L18.2457 9.58187C17.9229 9.13443 17.5145 8.72595 17.0114 8.35976C16.5127 7.99469 15.9763 7.71978 15.4064 7.5339C14.8365 7.34803 14.2299 7.25342 13.5866 7.25342C12.5604 7.25342 11.6065 7.50607 10.7194 8.01584C9.83571 8.52115 9.13561 9.22459 8.62362 10.1206C8.10829 11.0199 7.8523 11.9771 7.8523 12.9888C7.8523 14.0273 8.10829 14.9901 8.62362 15.8771C9.13561 16.7609 9.83571 17.4621 10.7194 17.9741C11.6065 18.4883 12.5604 18.7443 13.5866 18.7443C14.8855 18.7443 16.0308 18.3703 17.0325 17.6168C18.0331 16.8677 18.7188 15.9016 19.0927 14.7218H13.6445L14.3401 13.6611H18.534L18.5362 13.6589H21.3666V9.60301C21.3666 8.99975 21.5225 8.43545 21.8297 7.90899C22.1369 7.38253 22.5554 6.96403 23.0796 6.65684C23.6072 6.34853 24.1704 6.19604 24.7736 6.19604C25.3769 6.19604 25.9412 6.34853 26.4676 6.65684C26.9919 6.96403 27.4093 7.38253 27.7164 7.90899C28.0248 8.43656 28.1806 8.99975 28.1806 9.60301V19.5523H27.1232V14.7162H22.4274V19.5523H21.3666V14.7162H20.1868C20.0043 15.452 19.7004 16.1409 19.2764 16.782C18.6509 17.717 17.8473 18.4549 16.86 18.9936C15.8716 19.5334 14.7809 19.8017 13.5866 19.8017C12.3434 19.8017 11.2036 19.4967 10.1707 18.8879C9.13784 18.2779 8.31865 17.4554 7.70983 16.417C7.09989 15.374 6.79492 14.2343 6.79492 12.9888C6.79492 12.0773 6.96855 11.2058 7.31359 10.371C7.66086 9.53957 8.15059 8.80497 8.78501 8.16832C9.42166 7.5339 10.1529 7.0464 10.9788 6.70581C11.808 6.36745 12.6761 6.19604 13.5866 6.19604Z" fill="#80FF00"/>
<defs>
<filter id="filter0_di_15460_1655" x="0.2" y="0.2" width="91.559" height="25.6" filterUnits="userSpaceOnUse" color-interpolation-filters="sRGB">
<feFlood flood-opacity="0" result="BackgroundImageFix"/>
<feColorMatrix in="SourceAlpha" type="matrix" values="0 0 0 0 0 0 0 0 0 0 0 0 0 0 0 0 0 0 127 0" result="hardAlpha"/>
<feOffset/>
<feGaussianBlur stdDeviation="1.4"/>
<feComposite in2="hardAlpha" operator="out"/>
<feColorMatrix type="matrix" values="0 0 0 0 0.704987 0 0 0 0 0.525 0 0 0 0 0.933333 0 0 0 1 0"/>
<feBlend mode="normal" in2="BackgroundImageFix" result="effect1_dropShadow_15460_1655"/>
<feBlend mode="normal" in="SourceGraphic" in2="effect1_dropShadow_15460_1655" result="shape"/>
<feColorMatrix in="SourceAlpha" type="matrix" values="0 0 0 0 0 0 0 0 0 0 0 0 0 0 0 0 0 0 127 0" result="hardAlpha"/>
<feOffset/>
<feGaussianBlur stdDeviation="0.4"/>
<feComposite in2="hardAlpha" operator="arithmetic" k2="-1" k3="1"/>
<feColorMatrix type="matrix" values="0 0 0 0 1 0 0 0 0 1 0 0 0 0 1 0 0 0 1 0"/>
<feBlend mode="normal" in2="shape" result="effect2_innerShadow_15460_1655"/>
</filter>
</defs>
</svg>
